<svg width="512" height="512" viewBox="0 0 512 512" fill="none" xmlns="http://www.w3.org/2000/svg">
<path d="M66.2707 142.744C91.3673 155.871 116.349 169.215 141.215 182.776C150.717 187.916 163.336 195.46 172.555 199.999L172.589 311.374C182.977 316.683 224.74 337.488 229.954 344.9C241.348 353.949 251.468 372.29 252.649 386.7C253.344 395.184 253.052 407.135 253.059 415.948L253.018 470.502C239.745 463.145 226.433 455.861 213.082 448.649C209.173 446.522 196.794 440.121 193.485 437.746C190.45 436.85 174.508 427.373 170.785 425.347L126.781 401.121C118.786 396.762 109.212 392.027 101.625 387.435C97.9473 385.255 94.4889 382.724 91.2988 379.876C78.5333 368.39 67.4764 349.533 66.4846 332.143C65.7878 328.796 66.0468 312.881 66.0485 308.234L66.1905 254.191L66.2014 180.594C66.1855 168.698 65.7886 154.491 66.2707 142.744Z" fill="url(#paint0_linear_light)"/>
<path d="M66.2709 142.744C91.3675 155.871 116.35 169.215 141.216 182.776C150.718 187.916 163.336 195.46 172.555 199.999L172.589 311.374C167.919 309.324 163.238 306.544 158.701 304.151C130.146 289.082 101.875 273.492 73.368 258.346C71.1279 257.156 68.7875 256.038 66.6101 254.744C65.8431 230.14 66.3385 280.402 66.6101 254.744C66.2609 251.526 66.1355 312.99 66.0486 308.234L66.1906 254.191L66.2015 180.594C66.1856 168.698 65.7888 154.491 66.2709 142.744Z" fill="url(#paint1_linear_light)"/>
<path d="M339.036 310.567C342.205 309.683 441.722 255.447 445.668 252.291C445.781 267.933 445.817 283.575 445.775 299.217C445.795 311.989 446.875 328.215 444.12 340.472C440.299 357.461 427.477 374.145 413.581 384.402C407.676 388.761 399.48 392.866 392.915 396.484L360.882 414.119L312.447 440.724C294.045 450.615 274.696 460.674 256.57 471L256.695 425.136C256.685 410.262 254.941 389.313 259.167 375.5C266.244 352.371 287.324 339.274 306.753 328.622L327.294 317.226C329.251 316.141 338.081 311.473 339.036 310.567Z" fill="#4d3458"/>
<path d="M66.2707 142.744C81.4109 134.883 96.4049 126.267 111.38 118.075L198.701 70.3604L230.876 52.8476C237.924 48.9401 244.855 44.7282 252.156 41.3524C254.159 40.3829 257.955 41.62 259.892 42.5803C273.114 49.1406 286.108 56.3316 299.169 63.2173C307.629 67.6783 315.963 70.9819 319.425 80.6672C325.643 98.0584 315.748 117.807 301.606 128.141C295.122 132.92 289.108 136.157 282.18 139.968L255.061 154.704C227.997 169.598 199.915 185.713 172.555 199.999C163.336 195.46 150.717 187.916 141.215 182.776C116.349 169.215 91.3673 155.871 66.2707 142.744Z" fill="#4d3458"/>
<path d="M339.112 200.05C339.004 200.003 338.896 199.955 338.788 199.908C322.733 191.079 307.385 181.822 291.184 173.17C276.744 166.464 278.502 151.681 290.767 144.178C299.379 138.911 310.339 133.979 319.476 129.296C327.442 125.22 335.381 121.095 343.293 116.918C352.552 112.044 361.856 106.76 371.973 103.882C373.541 104.355 375.767 105.068 377.526 106.021C399.87 118.129 422.644 129.774 444.826 142.103C445.597 142.531 445.385 143.632 445.306 144.299L445.142 155.165C446.256 186.845 444.881 220.417 445.668 252.291C441.722 255.447 342.205 309.683 339.036 310.567L339.112 200.05Z" fill="url(#paint2_linear_light)"/>
<path d="M339.112 200.05C339.004 200.003 338.896 199.955 338.788 199.908C322.733 191.079 307.385 181.822 291.184 173.17C276.744 166.464 278.502 151.681 290.767 144.178C299.379 138.911 310.339 133.979 319.476 129.296C327.442 125.22 335.381 121.095 343.293 116.918C352.552 112.044 361.856 106.76 371.973 103.882C373.541 104.355 375.767 105.068 377.526 106.021C399.87 118.129 422.644 129.774 444.826 142.103C445.597 142.531 445.385 143.632 445.306 144.299L444.899 143.59C443.079 143.918 432.062 149.973 430.025 151.29C423.773 154.051 415.57 159.148 409.305 162.433C395.023 169.888 380.8 177.455 366.637 185.136C357.685 189.995 348.116 195.494 339.112 200.05Z" fill="#4d3458"/>
<path d="M430.025 151.29C432.062 149.973 443.079 143.918 444.899 143.59L445.306 144.299L445.142 155.165C443.769 152.87 444.711 153.131 444.073 150.202L443.586 149.916C439.904 150.167 435.91 150.219 432.323 150.883C431.354 151.062 431.184 151.21 430.025 151.29Z" fill="#1D0D24"/>
<defs>
<linearGradient id="paint0_linear_light" x1="43.096" y1="319.251" x2="276.319" y2="404.761" gradientUnits="userSpaceOnUse">
<stop stop-color="#1a0a21"/>
<stop offset="1" stop-color="#2d1f38"/>
</linearGradient>
<linearGradient id="paint1_linear_light" x1="114.27" y1="141.238" x2="124.051" y2="312.388" gradientUnits="userSpaceOnUse">
<stop stop-color="#1f0b2a"/>
<stop offset="1" stop-color="#4d2663"/>
</linearGradient>
<linearGradient id="paint2_linear_light" x1="395.65" y1="147.147" x2="388.306" y2="310.983" gradientUnits="userSpaceOnUse">
<stop stop-color="#1e0829"/>
<stop offset="1" stop-color="#4a2560"/>
</linearGradient>
</defs>
</svg>
